<!-- Generated by IcoMoon.io -->
<svg version="1.1" xmlns="http://www.w3.org/2000/svg" width="75" height="75" viewBox="0 0 75 75">
<title>convertkit</title>
<path fill="#9092b0" d="M36.408 55.052c10.853 0 19.242-8.18 19.242-18.271 0-9.453-7.881-15.225-13.101-15.225-7.269 0-13.095 5.089-13.925 12.643-0.154 1.399-1.265 2.572-2.675 2.562-2.344-0.017-5.752-0.037-7.909-0.029-0.929 0.003-1.696-0.749-1.651-1.675 0.325-6.552 2.521-12.678 6.709-17.384 4.653-5.229 11.429-8.298 19.451-8.298 13.478 0 26.201 12.218 26.201 27.406 0 16.818-13.967 30.451-32.056 30.451-12.9 0-25.892-8.41-30.428-20.169-0.016-0.043-0.020-0.091-0.011-0.136 0.061-0.348 0.181-0.666 0.299-0.979 0.172-0.455 0.34-0.9 0.315-1.412l-0.079-1.638c-0.018-0.396 0.083-0.789 0.289-1.128s0.509-0.609 0.87-0.775l0.656-0.305c0.367-0.17 0.689-0.425 0.937-0.744s0.416-0.693 0.49-1.091c0.22-1.201 1.277-2.074 2.51-2.074 1.927 0 3.602 1.278 4.231 3.096 3.029 8.746 7.844 15.175 19.635 15.175z"></path>
</svg>
