<?xml version="1.0" encoding="UTF-8"?><svg id="Layer_1" xmlns="http://www.w3.org/2000/svg" xmlns:xlink="http://www.w3.org/1999/xlink" viewBox="0 0 602.4 46.74"><defs><style>.cls-1{fill:url(#linear-gradient);}.cls-1,.cls-2{fill-rule:evenodd;}.cls-3{fill:#848484;}.cls-4{fill:#414141;}.cls-2{fill:url(#linear-gradient-2);}</style><linearGradient id="linear-gradient" x1="53.85" y1="-.56" x2="53.85" y2="43.74" gradientUnits="userSpaceOnUse"><stop offset="0" stop-color="#4424df"/><stop offset="1" stop-color="#315fff"/></linearGradient><linearGradient id="linear-gradient-2" x1="33.61" y1="-.56" x2="33.61" y2="43.74" xlink:href="#linear-gradient"/></defs><g><path class="cls-1" d="M28.27,22.08l27.83,16.15c4.9,2.51,9.45,3.08,14.67,1.03,6.22-2.45,10.48-7.52,10.98-14.29,.42-5.39-1.72-10.92-5.68-14.6-4.71-4.42-10.98-5.43-17.1-3.83-1.11,.23-3.02,1.03-4.44,1.55-.61,.21-1.11,.4-1.42,.44-2.43,.25-3.75-3-1.57-4.27,4.67-2.74,11.02-3.6,15.25-3.18,5.11,.57,9.93,2.79,13.62,6.41,4.38,4.34,6.64,10.16,6.47,16.32-.23,8.74-5.15,16.22-13.16,19.78-4.9,2.16-10.43,2.56-15.53,1.03-1.82-.55-2.91-1.19-4.57-2.12l-28.06-15.74-1.4,2.41-3.35-8.34,8.9-1.22-1.45,2.47Z"/><path class="cls-2" d="M59.17,24.38L31.37,8.25c-4.92-2.51-9.47-3.08-14.69-1.03-6.2,2.45-10.46,7.52-10.98,14.29-.42,5.39,1.72,10.92,5.68,14.6,4.74,4.42,10.98,5.43,17.12,3.83,1.09-.23,3.02-1.03,4.42-1.55,.61-.21,1.11-.4,1.45-.44,2.43-.25,3.75,3,1.55,4.27-4.67,2.75-11.02,3.6-15.25,3.18-5.11-.57-9.93-2.79-13.6-6.41C2.66,34.67,.42,28.84,.57,22.68,.8,13.95,5.72,6.47,13.75,2.9,18.63,.75,24.16,.35,29.25,1.88c1.84,.55,2.93,1.17,4.57,2.1l28.06,15.76,1.42-2.43,3.35,8.36-8.93,1.22,1.45-2.49Z"/></g><g><g><path class="cls-4" d="M126.61,.76c8.84,0,17.68,4.22,20.23,14.49h-9.35c-2.23-4.28-5.79-5.98-10.88-5.98-8.33,0-13.04,6.24-13.04,14.11,0,8.38,5.09,14.05,13.04,14.05,6.11,0,10.56-1.83,12.47-8.44h-12.15v-7.94h20.86c.25,4.22,.13,8.31-1.33,12.35-3.37,8.88-11.32,12.6-19.85,12.6-11.77,0-22.71-8-22.71-22.61S114.9,.76,126.61,.76Z"/><path class="cls-4" d="M195.43,44.03v1.32h-10.18l-9.16-14.55h-7.95v14.55h-9.54V1.26c6.36,0,12.66-.06,19.02,0,10.18,0,15.71,7.31,15.71,15.12,0,5.61-2.86,10.52-7.95,12.98l10.05,14.68Zm-17.87-20.97c4.01,0,6.61-3.09,6.55-6.87,0-3.72-2.48-6.68-6.55-6.68h-9.54v13.54h9.54Z"/><path class="cls-4" d="M215.75,38.11l-3.44,7.31h-9.92v-1.26L222.87,.95h4.39l20.35,43.21v1.26h-9.86l-3.5-7.31h-18.51Zm3.12-7.94h12.34l-6.17-14.55-6.17,14.55Z"/><path class="cls-4" d="M266.66,26.22l4.71-10.8,5.98-14.09h10.11v1.37l-18.96,42.66h-3.95L245.42,2.7V1.32h10.11l5.98,14.03,4.96,10.86h.19Z"/><path class="cls-4" d="M296.49,45.42V1.2h9.54V45.42h-9.54Z"/><path class="cls-4" d="M315.12,9.51V1.32h37.47V9.51h-14.09V45.42h-9.22V9.51h-14.15Z"/><path class="cls-4" d="M378.63,19.15l4.39-8.76,5.34-9.07h10.11v1.39l-15.27,25.07v17.64h-9.54V27.78l-15.33-25.07V1.32h10.24l5.53,9.39,4.2,8.44h.32Z"/></g><g><path class="cls-3" d="M423.19,45.31h-4.48V1.65h28.89V5.79h-24.41v15.06h22.17v4.14h-22.17v20.32Z"/><path class="cls-3" d="M462.27,41.17h23.29v4.14h-27.77V1.65h4.48V41.17Z"/><path class="cls-3" d="M514.11,45.98c-12.71,0-22.39-8.73-22.39-22.5S501.4,.97,514.11,.97s22.39,8.73,22.39,22.5-9.68,22.5-22.39,22.5Zm0-4.14c10.08,0,17.75-6.89,17.75-18.36s-7.67-18.36-17.75-18.36-17.75,6.89-17.75,18.36,7.67,18.36,17.75,18.36Z"/><path class="cls-3" d="M584.82,45.31l-9.63-26.98-3.53-10.3-3.53,10.3-9.63,26.98h-4.2l-12.82-43.67h4.59l7.61,25.92,2.91,10.36,3.58-10.53,9.18-25.75h4.65l9.18,25.75,3.58,10.53,2.91-10.36,7.61-25.92h4.53l-12.82,43.67h-4.2Z"/></g></g></svg>
